<!-- Generator: Adobe Illustrator 19.0.0, SVG Export Plug-In  -->
<svg version="1.1"
	 xmlns="http://www.w3.org/2000/svg" xmlns:xlink="http://www.w3.org/1999/xlink" xmlns:a="http://ns.adobe.com/AdobeSVGViewerExtensions/3.0/"
	 x="0px" y="0px" width="127.2px" height="92.9px" viewBox="0 0 127.2 92.9" style="enable-background:new 0 0 127.2 92.9;"
	 xml:space="preserve">
<style type="text/css">
	.st0{fill:#10357F;}
</style>
<defs>
</defs>
<path class="st0" d="M28.8,12.6c0,4.7,3.8,5.8,5.9,5.9c0.3,0,0.6,0,0.8-0.1c2-0.1,5.4-1.9,4.9-6.7c-0.3-2.8-2.1-4.2-4.6-4.6
	C35.4,7.1,35,7,34.6,7C31.7,7.2,28.7,9,28.8,12.6L28.8,12.6z M108.7,74c2.8-2.7,4.1-5,4.1-5s1,6.3-2.8,13.7
	c-0.4,0.7-0.7,1.3-1.3,1.9c-4.5,6-14.1,8.4-22.5,8.3c-5.1,0-9.5-0.8-12.5-1.8c-2.6-0.9-4.3-1.9-4.3-1.9c-9.8-4.5-9-20.1-9-20.1
	s5.5,12.6,24.7,13.7C96.6,83.6,104.4,78.3,108.7,74L108.7,74z M108.7,53.4c0.7,0,1.2-0.1,1.6-0.1c2-0.3,8.3-2.8,7.8-12.5
	c-0.4-9.4-5.3-12-9.3-12.1c-0.1,0-0.1,0-0.2,0c0,0-1.9-0.1-3.9,1.2c-2.5,1.6-5.2,5.1-5.2,11.5c0.1,8.8,5.2,11.5,8.6,12
	C108.2,53.4,108.4,53.4,108.7,53.4L108.7,53.4z M108.7,20.6c13.2,0.4,17.7,12.1,18.3,16.6c0.4,3.2,0.5,13.5-6,19.6
	c-2.7,2.5-6.6,4.6-12.2,4.6c-0.1,0-0.2,0-0.4,0c-6.2-0.1-10.3-2.8-13.1-5.7c-5.7-6.3-5.2-15.5-5.2-15.5c-0.1-3.1,0.9-6.9,3-10.5
	c2.9-4.9,7.6-9.2,15.4-9.1C108.4,20.6,108.6,20.6,108.7,20.6L108.7,20.6z M108.7,0.1c0.4,0,0.8,0,1.2-0.1
	c11.9-0.1,16.4,9.5,16.4,9.5V16c0,0-3.8-8-16.6-8.7c-0.3,0-0.7,0-1,0c-11.9-0.2-16.6,8-16.6,8V9.9C93.9,6.4,97.7,0.6,108.7,0.1
	L108.7,0.1z M9,22v-9.4c0,0-6-0.8-9,6.6V50c0,0,0.4,3.4,2.4,6.2c1.8,2.8,5,5,9.8,5.1c9.7,0.3,11.3-4.5,10.5-9.8c0,0-10.8,6-13.4-3
	V30.1H19c0,0,4.4-0.4,3.6-8.1L9,22L9,22z M29.9,21.8v29.3c0,0,0.8,9.5,7.8,9.9s9.3-2.9,9.4-7.9c0,0-3.5,1.3-5.7-0.4
	c-2.3-1.6-2.2-4-2.2-4V26.8C39.2,26.8,37.7,21.4,29.9,21.8L29.9,21.8z M83.8,32.3c0,0,0.9,0.4,1.2-0.6c0.2-1,1-8-7.2-10.2
	c-9.6-2.5-20.8,1-24.7,9c-1.3,2.8-2.8,6.9-3,10.9c-0.4,7.4,2.5,15.5,10.3,19.5c0,0,9.2,4.5,18.2,1.3c0,0,6.7-2.8,6.8-7.8
	c0.1-5.1,0.7-12.2-3.6-12.2c-4.3-0.1-5.7,0-5.7,0s1,8.3,0.7,9.3c-0.4,1.1-2.8,4.1-9.9,1.9c-7.1-2.2-8.1-11.2-6.3-16.9
	s9-8.1,13.5-7.7C78.5,29.1,83.8,32.3,83.8,32.3L83.8,32.3z"/>
</svg>
